<?xml version="1.0" encoding="UTF-8"?>
<svg enable-background="new 0 0 20 20" version="1.1" viewBox="0 0 20 20" xml:space="preserve" xmlns="http://www.w3.org/2000/svg">
<style type="text/css">
	.st0{fill:none;stroke:#2C2C2C;stroke-width:2;stroke-linejoin:round;stroke-miterlimit:1.4142;stroke-opacity:0.7647;}
	.st1{fill:#E6E6E6;}
</style>


<g enable-background="new"><g enable-background="new"><rect width="20" height="20" fill="none" style="paint-order:markers stroke fill"/></g><g transform="translate(0,-620)" enable-background="new" shape-rendering="auto"><path d="m14.242 624.24a0.50005 0.50005 0 0 0-0.49219 0.50781v1.0488c-0.7958-0.72112-1.6057-1.1483-2.3828-1.3457-0.9815-0.24928-1.909-0.15405-2.6816 0.10351-1.5454 0.51513-2.5508 1.6016-2.5508 1.6016a0.50022 0.50022 0 1 0 0.73047 0.68359s0.86961-0.91357 2.1367-1.3359c1.128-0.37601 2.5112-0.41424 4.0488 0.99414h-1.0508a0.50005 0.50005 0 1 0 0 1h2.1699a0.50005 0.50005 0 0 0 0.4043-0.11328 0.50005 0.50005 0 0 0 0.0039-2e-3 0.50005 0.50005 0 0 0 0.0332-0.0312 0.50005 0.50005 0 0 0 2e-3 -4e-3 0.50005 0.50005 0 0 0 0.03125-0.0332 0.50005 0.50005 0 0 0 0.0019-4e-3 0.50005 0.50005 0 0 0 0.10352-0.39453v-2.1679a0.50005 0.50005 0 0 0-0.50781-0.50781zm-8.2012 4.7383v7.0234l0.52344-0.61914 2.4453-2.8926zm8.959 0.0195-3 3.5 3 3.5zm-8.3633 1.6152 1.5898 1.877-1.5898 1.8789z" color="#000000" color-rendering="auto" dominant-baseline="auto" enable-background="accumulate" fill="none" image-rendering="auto" solid-color="#000000" stroke="#2b2b2b" stroke-opacity=".76471" stroke-width="2" style="font-feature-settings:normal;font-variant-alternates:normal;font-variant-caps:normal;font-variant-ligatures:normal;font-variant-numeric:normal;font-variant-position:normal;isolation:auto;mix-blend-mode:normal;shape-padding:0;text-decoration-color:#000000;text-decoration-line:none;text-decoration-style:solid;text-indent:0;text-orientation:mixed;text-transform:none;white-space:normal"/><path d="m14.242 624.24a0.50005 0.50005 0 0 0-0.49219 0.50781v1.0488c-0.7958-0.72112-1.6057-1.1483-2.3828-1.3457-0.9815-0.24928-1.909-0.15405-2.6816 0.10351-1.5454 0.51513-2.5508 1.6016-2.5508 1.6016a0.50022 0.50022 0 1 0 0.73047 0.68359s0.86961-0.91357 2.1367-1.3359c1.128-0.37601 2.5112-0.41424 4.0488 0.99414h-1.0508a0.50005 0.50005 0 1 0 0 1h2.1699a0.50005 0.50005 0 0 0 0.4043-0.11328 0.50005 0.50005 0 0 0 0.0039-2e-3 0.50005 0.50005 0 0 0 0.0332-0.0312 0.50005 0.50005 0 0 0 2e-3 -4e-3 0.50005 0.50005 0 0 0 0.03125-0.0332 0.50005 0.50005 0 0 0 0.0019-4e-3 0.50005 0.50005 0 0 0 0.10352-0.39453v-2.1679a0.50005 0.50005 0 0 0-0.50781-0.50781zm-8.2012 4.7383v7.0234l0.52344-0.61914 2.4453-2.8926zm8.959 0.0195-3 3.5 3 3.5zm-8.3633 1.6152 1.5898 1.877-1.5898 1.8789z" color="#000000" color-rendering="auto" dominant-baseline="auto" enable-background="accumulate" fill="#e6e6e6" image-rendering="auto" solid-color="#000000" style="font-feature-settings:normal;font-variant-alternates:normal;font-variant-caps:normal;font-variant-ligatures:normal;font-variant-numeric:normal;font-variant-position:normal;isolation:auto;mix-blend-mode:normal;shape-padding:0;text-decoration-color:#000000;text-decoration-line:none;text-decoration-style:solid;text-indent:0;text-orientation:mixed;text-transform:none;white-space:normal"/></g></g></svg>
