<?xml version="1.0" encoding="UTF-8"?>
<svg enable-background="new 0 0 20 20" version="1.1" viewBox="0 0 20 20" xml:space="preserve" xmlns="http://www.w3.org/2000/svg">
<style type="text/css">
	.st0{fill:none;stroke:#2C2C2C;stroke-width:2;stroke-linejoin:round;stroke-miterlimit:1.4142;stroke-opacity:0.7647;}
	.st1{fill:#E6E6E6;}
</style>


<g enable-background="new"><g enable-background="new"><rect width="20" height="20" fill="#e7e7e7" fill-opacity=".2902" style="paint-order:markers stroke fill"/></g><g transform="translate(0,-620)" enable-background="new"><g transform="translate(1.5,18.054)" shape-rendering="auto"><path d="m7.5 608 3.5 3 3.5-3zm-2.0078 0.24219a0.50005 0.50005 0 0 0-0.074219 8e-3h-2.168a0.50005 0.50005 0 1 0 0 1h1.0488c-1.6318 1.801-1.7037 3.68-1.2422 5.0644 0.51513 1.5454 1.6016 2.5508 1.6016 2.5508a0.50022 0.50022 0 1 0 0.68359-0.73046s-0.91357-0.86961-1.3359-2.1367c-0.37601-1.1282-0.41424-2.5114 0.99414-4.049v1.0508a0.50005 0.50005 0 1 0 1 0v-2.1699a0.50005 0.50005 0 0 0-0.056641-0.32031 0.50005 0.50005 0 0 0-0.00195-6e-3 0.50005 0.50005 0 0 0-0.023437-0.0371 0.50005 0.50005 0 0 0-0.03125-0.041 0.50005 0.50005 0 0 0-0.00195-4e-3 0.50005 0.50005 0 0 0-0.03125-0.0332 0.50005 0.50005 0 0 0-0.00391-2e-3 0.50005 0.50005 0 0 0-0.033203-0.0312 0.50005 0.50005 0 0 0-0.00391-2e-3 0.50005 0.50005 0 0 0-0.32031-0.11133zm5.5 5.7461-3.5137 2.9727h7.0273l-0.625-0.5293zm0 0.78516 1.877 1.5879h-3.752z" color="#000000" color-rendering="auto" dominant-baseline="auto" enable-background="accumulate" fill="none" image-rendering="auto" solid-color="#000000" stroke="#2b2b2b" stroke-opacity=".76471" stroke-width="2" style="font-feature-settings:normal;font-variant-alternates:normal;font-variant-caps:normal;font-variant-ligatures:normal;font-variant-numeric:normal;font-variant-position:normal;isolation:auto;mix-blend-mode:normal;shape-padding:0;text-decoration-color:#000000;text-decoration-line:none;text-decoration-style:solid;text-indent:0;text-orientation:mixed;text-transform:none;white-space:normal"/><path d="m7.5 608 3.5 3 3.5-3zm-2.0078 0.24219a0.50005 0.50005 0 0 0-0.074219 8e-3h-2.168a0.50005 0.50005 0 1 0 0 1h1.0488c-1.6318 1.801-1.7037 3.68-1.2422 5.0644 0.51513 1.5454 1.6016 2.5508 1.6016 2.5508a0.50022 0.50022 0 1 0 0.68359-0.73046s-0.91357-0.86961-1.3359-2.1367c-0.37601-1.1282-0.41424-2.5114 0.99414-4.049v1.0508a0.50005 0.50005 0 1 0 1 0v-2.1699a0.50005 0.50005 0 0 0-0.056641-0.32031 0.50005 0.50005 0 0 0-0.00195-6e-3 0.50005 0.50005 0 0 0-0.023437-0.0371 0.50005 0.50005 0 0 0-0.03125-0.041 0.50005 0.50005 0 0 0-0.00195-4e-3 0.50005 0.50005 0 0 0-0.03125-0.0332 0.50005 0.50005 0 0 0-0.00391-2e-3 0.50005 0.50005 0 0 0-0.033203-0.0312 0.50005 0.50005 0 0 0-0.00391-2e-3 0.50005 0.50005 0 0 0-0.32031-0.11133zm5.5 5.7461-3.5137 2.9727h7.0273l-0.625-0.5293zm0 0.78516 1.877 1.5879h-3.752z" color="#000000" color-rendering="auto" dominant-baseline="auto" enable-background="accumulate" fill="#e6e6e6" image-rendering="auto" solid-color="#000000" style="font-feature-settings:normal;font-variant-alternates:normal;font-variant-caps:normal;font-variant-ligatures:normal;font-variant-numeric:normal;font-variant-position:normal;isolation:auto;mix-blend-mode:normal;shape-padding:0;text-decoration-color:#000000;text-decoration-line:none;text-decoration-style:solid;text-indent:0;text-orientation:mixed;text-transform:none;white-space:normal"/></g></g></g></svg>
