<?xml version="1.0" encoding="UTF-8"?>
<svg enable-background="new 0 0 20 20" version="1.1" viewBox="0 0 20 20" xml:space="preserve" xmlns="http://www.w3.org/2000/svg">
<style type="text/css">
	.st0{fill:none;stroke:#2C2C2C;stroke-width:2;stroke-linejoin:round;stroke-miterlimit:1.4142;stroke-opacity:0.7647;}
	.st1{fill:#E6E6E6;}
</style><g enable-background="new"><rect width="20" height="20" enable-background="new" fill="#e7e7e7" fill-opacity=".2902" style="paint-order:markers stroke fill"/><g transform="translate(0,-620)" enable-background="new"><g transform="translate(-252.02,801.01)" shape-rendering="auto"><path transform="translate(-.99781 -2)" d="m262.5-174.75c-2.8847 0-5.25 2.3653-5.25 5.25s2.3653 5.25 5.25 5.25c1.1725 0 2.2481-0.40491 3.125-1.0625l3.0938 3.0938c0.70833 0.7085 1.7708-0.354 1.0625-1.0625l-3.0938-3.0938c0.65758-0.87694 1.0625-1.9525 1.0625-3.125 0-2.8847-2.3653-5.25-5.25-5.25zm-6e-3 1.25c2.2082-3.1e-4 3.9984 1.7899 3.998 3.998-1.6e-4 0.80588-0.24388 1.5929-0.69921 2.2578-0.0754 0.10943-0.15625 0.21503-0.24219 0.31641-0.0821 0.0978-0.16874 0.1917-0.25977 0.28125l-0.0117 0.0117c-0.0346 0.0319-0.0698 0.0632-0.10546 0.0937-0.0633 0.0587-0.1284 0.11541-0.19532 0.16993-0.70679 0.56045-1.5823 0.86538-2.4844 0.86523-2.2074 3.1e-4 -3.9973-1.7887-3.998-3.9961-2.8e-4 -2.2082 1.7898-3.9984 3.998-3.998zm0 1.4922a0.50005 0.50005 0 0 0-0.49205 0.50781v1.5h-1.543a0.50005 0.50005 0 1 0 0 1h1.543v1.5a0.50005 0.50005 0 1 0 1 0v-1.5h1.5859a0.50005 0.50005 0 1 0 0-1h-1.5859v-1.5a0.50005 0.50005 0 0 0-0.50781-0.50781z" color="#000000" color-rendering="auto" dominant-baseline="auto" enable-background="accumulate" fill="none" image-rendering="auto" solid-color="#000000" stroke="#2b2b2b" stroke-linecap="round" stroke-opacity=".76471" stroke-width="2.2" style="font-feature-settings:normal;font-variant-alternates:normal;font-variant-caps:normal;font-variant-ligatures:normal;font-variant-numeric:normal;font-variant-position:normal;isolation:auto;mix-blend-mode:normal;shape-padding:0;text-decoration-color:#000000;text-decoration-line:none;text-decoration-style:solid;text-indent:0;text-orientation:mixed;text-transform:none;white-space:normal"/><path transform="translate(-.99781 -2)" d="m262.5-174.75c-2.8847 0-5.25 2.3653-5.25 5.25s2.3653 5.25 5.25 5.25c1.1725 0 2.2481-0.40491 3.125-1.0625l3.0938 3.0938c0.70833 0.7085 1.7708-0.354 1.0625-1.0625l-3.0938-3.0938c0.65758-0.87694 1.0625-1.9525 1.0625-3.125 0-2.8847-2.3653-5.25-5.25-5.25zm-6e-3 1.25c2.2082-3.1e-4 3.9984 1.7899 3.998 3.998-1.6e-4 0.80588-0.24388 1.5929-0.69921 2.2578-0.0754 0.10943-0.15625 0.21503-0.24219 0.31641-0.0821 0.0978-0.16874 0.1917-0.25977 0.28125l-0.0117 0.0117c-0.0346 0.0319-0.0698 0.0632-0.10546 0.0937-0.0633 0.0587-0.1284 0.11541-0.19532 0.16993-0.70679 0.56045-1.5823 0.86538-2.4844 0.86523-2.2074 3.1e-4 -3.9973-1.7887-3.998-3.9961-2.8e-4 -2.2082 1.7898-3.9984 3.998-3.998zm0 1.4922a0.50005 0.50005 0 0 0-0.49205 0.50781v1.5h-1.543a0.50005 0.50005 0 1 0 0 1h1.543v1.5a0.50005 0.50005 0 1 0 1 0v-1.5h1.5859a0.50005 0.50005 0 1 0 0-1h-1.5859v-1.5a0.50005 0.50005 0 0 0-0.50781-0.50781z" color="#000000" color-rendering="auto" dominant-baseline="auto" enable-background="accumulate" fill="#e6e6e6" image-rendering="auto" solid-color="#000000" style="font-feature-settings:normal;font-variant-alternates:normal;font-variant-caps:normal;font-variant-ligatures:normal;font-variant-numeric:normal;font-variant-position:normal;isolation:auto;mix-blend-mode:normal;shape-padding:0;text-decoration-color:#000000;text-decoration-line:none;text-decoration-style:solid;text-indent:0;text-orientation:mixed;text-transform:none;white-space:normal"/></g></g></g></svg>
