<?xml version="1.0" encoding="UTF-8" standalone="no"?>
<!-- Generator: Adobe Illustrator 21.0.2, SVG Export Plug-In . SVG Version: 6.00 Build 0)  -->

<svg
   xmlns:dc="http://purl.org/dc/elements/1.1/"
   xmlns:cc="http://creativecommons.org/ns#"
   xmlns:rdf="http://www.w3.org/1999/02/22-rdf-syntax-ns#"
   xmlns:svg="http://www.w3.org/2000/svg"
   xmlns="http://www.w3.org/2000/svg"
   xmlns:sodipodi="http://sodipodi.sourceforge.net/DTD/sodipodi-0.dtd"
   xmlns:inkscape="http://www.inkscape.org/namespaces/inkscape"
   version="1.1"
   id="svg4"
   inkscape:version="0.92.3 (2405546, 2018-03-11)"
   sodipodi:docname="pane_flipv_over.svg"
   x="0px"
   y="0px"
   viewBox="0 0 20 20"
   style="enable-background:new 0 0 20 20;"
   xml:space="preserve"><metadata
   id="metadata12"><rdf:RDF><cc:Work
       rdf:about=""><dc:format>image/svg+xml</dc:format><dc:type
         rdf:resource="http://purl.org/dc/dcmitype/StillImage" /></cc:Work></rdf:RDF></metadata><defs
   id="defs10"><pattern
     y="0"
     x="0"
     height="6"
     width="6"
     patternUnits="userSpaceOnUse"
     id="EMFhbasepattern" /></defs><sodipodi:namedview
   pagecolor="#ffffff"
   bordercolor="#666666"
   borderopacity="1"
   objecttolerance="10"
   gridtolerance="10"
   guidetolerance="10"
   inkscape:pageopacity="0"
   inkscape:pageshadow="2"
   inkscape:window-width="1920"
   inkscape:window-height="1013"
   id="namedview8"
   showgrid="true"
   inkscape:zoom="42.05"
   inkscape:cx="10"
   inkscape:cy="10"
   inkscape:window-x="-9"
   inkscape:window-y="-9"
   inkscape:window-maximized="1"
   inkscape:current-layer="svg4"
   showguides="true"
   inkscape:guide-bbox="true"><inkscape:grid
     type="xygrid"
     id="grid866" /></sodipodi:namedview>
<style
   type="text/css"
   id="style2">
	.st0{fill:#E6E6E6;fill-opacity:0.2902;}
	.st1{fill:none;stroke:#2C2C2C;stroke-width:2;stroke-linejoin:round;stroke-miterlimit:1.4142;stroke-opacity:0.7647;}
	.st2{fill:#E6E6E6;}
</style>
<rect
   id="rect824"
   y="0"
   class="st0"
   width="20"
   height="20" />


<g
   id="g1010"
   transform="matrix(0,1,1,0,0,0)"><path
     id="path822-9"
     d="M 9.5117188,3 V 5 H 10.5 V 3 Z M 8,4 2,16 h 6 z m 4,0 v 12 h 6 z M 9.5117188,6 V 8 H 10.5 V 6 Z M 13,8 16.5,15 H 13 Z M 9.5117188,9 v 2 H 10.5 V 9 Z m 0,3 v 2 H 10.5 v -2 z m 0,3 v 2 H 10.5 v -2 z"
     style="fill:#e6e6e6;stroke:#2c2c2c;stroke-width:2;stroke-linejoin:round;stroke-miterlimit:4;stroke-dasharray:none;stroke-opacity:0.76470588"
     inkscape:connector-curvature="0" /><path
     id="path822"
     d="M 9.5117188,3 V 5 H 10.5 V 3 Z M 8,4 2,16 h 6 z m 4,0 v 12 h 6 z M 9.5117188,6 V 8 H 10.5 V 6 Z M 13,8 16.5,15 H 13 Z M 9.5117188,9 v 2 H 10.5 V 9 Z m 0,3 v 2 H 10.5 v -2 z m 0,3 v 2 H 10.5 v -2 z"
     style="fill:#e6e6e6;stroke-width:1.11719024"
     inkscape:connector-curvature="0" /></g></svg>