<?xml version="1.0" encoding="UTF-8" standalone="no"?>
<!-- Generator: Adobe Illustrator 21.0.2, SVG Export Plug-In . SVG Version: 6.00 Build 0)  -->

<svg
   xmlns:dc="http://purl.org/dc/elements/1.1/"
   xmlns:cc="http://creativecommons.org/ns#"
   xmlns:rdf="http://www.w3.org/1999/02/22-rdf-syntax-ns#"
   xmlns:svg="http://www.w3.org/2000/svg"
   xmlns="http://www.w3.org/2000/svg"
   xmlns:sodipodi="http://sodipodi.sourceforge.net/DTD/sodipodi-0.dtd"
   xmlns:inkscape="http://www.inkscape.org/namespaces/inkscape"
   version="1.1"
   id="svg4"
   inkscape:version="0.92.3 (2405546, 2018-03-11)"
   sodipodi:docname="pane_fliph_off.svg"
   x="0px"
   y="0px"
   viewBox="0 0 20 20"
   style="enable-background:new 0 0 20 20;"
   xml:space="preserve"><metadata
   id="metadata11"><rdf:RDF><cc:Work
       rdf:about=""><dc:format>image/svg+xml</dc:format><dc:type
         rdf:resource="http://purl.org/dc/dcmitype/StillImage" /></cc:Work></rdf:RDF></metadata><defs
   id="defs9" /><sodipodi:namedview
   pagecolor="#ffffff"
   bordercolor="#666666"
   borderopacity="1"
   objecttolerance="10"
   gridtolerance="10"
   guidetolerance="10"
   inkscape:pageopacity="0"
   inkscape:pageshadow="2"
   inkscape:window-width="1920"
   inkscape:window-height="1013"
   id="namedview7"
   showgrid="true"
   showguides="true"
   inkscape:guide-bbox="true"
   inkscape:zoom="42.05"
   inkscape:cx="10"
   inkscape:cy="10"
   inkscape:window-x="-9"
   inkscape:window-y="-9"
   inkscape:window-maximized="1"
   inkscape:current-layer="svg4"><inkscape:grid
     type="xygrid"
     id="grid4521" /><sodipodi:guide
     position="9.5124851,14"
     orientation="1,0"
     inkscape:locked="false"
     id="guide825" /><sodipodi:guide
     position="10.5,16.5"
     orientation="1,0"
     id="guide1316"
     inkscape:locked="false"
     inkscape:label=""
     inkscape:color="rgb(0,0,255)" /><sodipodi:guide
     position="16.5,18.311534"
     orientation="1,0"
     id="guide1393"
     inkscape:locked="false"
     inkscape:label=""
     inkscape:color="rgb(0,0,255)" /></sodipodi:namedview>
<style
   type="text/css"
   id="style2">
	.st0{fill:none;stroke:#2C2C2C;stroke-width:2;stroke-linejoin:round;stroke-miterlimit:1.4142;stroke-opacity:0.7647;}
	.st1{fill:#E6E6E6;}
</style>

<path
   inkscape:connector-curvature="0"
   style="fill:#e6e6e6;stroke-width:2;stroke:#2c2c2c;stroke-opacity:0.7647059;stroke-miterlimit:4;stroke-dasharray:none;stroke-linejoin:round"
   d="M 9.5117188,3 V 5 H 10.5 V 3 Z M 8,4 2,16 h 6 z m 4,0 v 12 h 6 z M 9.5117188,6 V 8 H 10.5 V 6 Z M 13,8 16.5,15 H 13 Z M 9.5117188,9 v 2 H 10.5 V 9 Z m 0,3 v 2 H 10.5 v -2 z m 0,3 v 2 H 10.5 v -2 z"
   id="path822-9" /><path
   style="fill:#e6e6e6;stroke-width:1.11719024"
   d="M 9.5117188 3 L 9.5117188 5 L 10.5 5 L 10.5 3 L 9.5117188 3 z M 8 4 L 2 16 L 8 16 L 8 4 z M 12 4 L 12 16 L 18 16 L 12 4 z M 9.5117188 6 L 9.5117188 8 L 10.5 8 L 10.5 6 L 9.5117188 6 z M 13 8 L 16.5 15 L 13 15 L 13 8 z M 9.5117188 9 L 9.5117188 11 L 10.5 11 L 10.5 9 L 9.5117188 9 z M 9.5117188 12 L 9.5117188 14 L 10.5 14 L 10.5 12 L 9.5117188 12 z M 9.5117188 15 L 9.5117188 17 L 10.5 17 L 10.5 15 L 9.5117188 15 z "
   id="path822" />
</svg>