<?xml version="1.0" encoding="UTF-8"?>
<svg enable-background="new 0 0 20 20" version="1.1" viewBox="0 0 20 20" xml:space="preserve" xmlns="http://www.w3.org/2000/svg">
<style type="text/css">
	.st0{fill:none;stroke:#2C2C2C;stroke-width:2;stroke-linejoin:round;stroke-miterlimit:1.4142;stroke-opacity:0.7647;}
	.st1{fill:#E6E6E6;}
</style><g enable-background="new"><g enable-background="new"><rect width="20" height="20" fill="none" style="paint-order:markers stroke fill"/></g><g transform="translate(0,-620)" enable-background="new"><g transform="translate(-252.03,801)" enable-background="new" shape-rendering="auto"><path transform="translate(-16.005,-2)" d="m277.51-174.75c-2.8847 0-5.25 2.3653-5.25 5.25s2.3653 5.25 5.25 5.25c1.1725 0 2.2481-0.40491 3.125-1.0625l3.0938 3.0938a0.7513 0.7513 0 1 0 1.0625-1.0625l-3.0938-3.0938c0.65758-0.87694 1.0625-1.9525 1.0625-3.125 0-2.8847-2.3653-5.25-5.25-5.25zm-6e-3 1.25a3.9975 3.9975 0 0 1 3.998 3.998 3.9975 3.9975 0 0 1-0.69922 2.2578 3.9975 3.9975 0 0 1-0.24219 0.31641 4 4 0 0 1-0.25976 0.28125 3.9975 3.9975 0 0 1-0.0117 0.0117 4 4 0 0 1-0.10547 0.0937 3.9975 3.9975 0 0 1-0.19531 0.16993 3.9975 3.9975 0 0 1-2.4844 0.86523 3.9975 3.9975 0 0 1-3.998-3.9961 3.9975 3.9975 0 0 1 3.9982-3.998zm-1.75 3.5c-0.554 0-0.74414 0.223-0.74414 0.5s0.19014 0.5 0.74414 0.5h3.5c0.554 0 0.75586-0.223 0.75586-0.5s-0.20186-0.5-0.75586-0.5z" color="#000000" color-rendering="auto" dominant-baseline="auto" enable-background="accumulate" fill="none" image-rendering="auto" solid-color="#000000" stroke="#2b2b2b" stroke-linecap="round" stroke-opacity=".76471" stroke-width="2.2" style="font-feature-settings:normal;font-variant-alternates:normal;font-variant-caps:normal;font-variant-ligatures:normal;font-variant-numeric:normal;font-variant-position:normal;isolation:auto;mix-blend-mode:normal;shape-padding:0;text-decoration-color:#000000;text-decoration-line:none;text-decoration-style:solid;text-indent:0;text-orientation:mixed;text-transform:none;white-space:normal"/><path transform="translate(-16.005,-2)" d="m277.51-174.75c-2.8847 0-5.25 2.3653-5.25 5.25s2.3653 5.25 5.25 5.25c1.1725 0 2.2481-0.40491 3.125-1.0625l3.0938 3.0938a0.7513 0.7513 0 1 0 1.0625-1.0625l-3.0938-3.0938c0.65758-0.87694 1.0625-1.9525 1.0625-3.125 0-2.8847-2.3653-5.25-5.25-5.25zm-6e-3 1.25a3.9975 3.9975 0 0 1 3.998 3.998 3.9975 3.9975 0 0 1-0.69922 2.2578 3.9975 3.9975 0 0 1-0.24219 0.31641 4 4 0 0 1-0.25976 0.28125 3.9975 3.9975 0 0 1-0.0117 0.0117 4 4 0 0 1-0.10547 0.0937 3.9975 3.9975 0 0 1-0.19531 0.16993 3.9975 3.9975 0 0 1-2.4844 0.86523 3.9975 3.9975 0 0 1-3.998-3.9961 3.9975 3.9975 0 0 1 3.9982-3.998zm-1.75 3.5c-0.554 0-0.74414 0.223-0.74414 0.5s0.19014 0.5 0.74414 0.5h3.5c0.554 0 0.75586-0.223 0.75586-0.5s-0.20186-0.5-0.75586-0.5z" color="#000000" color-rendering="auto" dominant-baseline="auto" enable-background="accumulate" fill="#e6e6e6" image-rendering="auto" solid-color="#000000" style="font-feature-settings:normal;font-variant-alternates:normal;font-variant-caps:normal;font-variant-ligatures:normal;font-variant-numeric:normal;font-variant-position:normal;isolation:auto;mix-blend-mode:normal;shape-padding:0;text-decoration-color:#000000;text-decoration-line:none;text-decoration-style:solid;text-indent:0;text-orientation:mixed;text-transform:none;white-space:normal"/></g></g></g></svg>
